<?xml version="1.0" encoding="UTF-8" standalone="no" ?>
<!DOCTYPE svg PUBLIC "-//W3C//DTD SVG 1.1//EN" "http://www.w3.org/Graphics/SVG/1.1/DTD/svg11.dtd">
<svg xmlns="http://www.w3.org/2000/svg" xmlns:xlink="http://www.w3.org/1999/xlink" version="1.1" width="345.07994079589844" height="138.75920000000002" xml:space="preserve">
<desc>Created with Fabric.js 1.6.0-rc.1</desc>
<defs></defs>
<g style="stroke: none; stroke-width: 1; stroke-dasharray: none; stroke-linecap: butt; stroke-linejoin: miter; stroke-miterlimit: 10; fill: none; fill-rule: nonzero; opacity: 1;" transform="translate(9.999999999999993 10) scale(0.22 0.23)" >
  <path d="M 256 153.59 c 66.048 0 127.67 18.88 179.802 51.52 C 413.64 126.646 341.558 69.125 256 69.125 c -85.56 0 -157.64 57.518 -179.807 135.982 C 128.33 172.47 189.952 153.59 256 153.59 z" style="stroke: none; stroke-width: 1; stroke-dasharray: none; stroke-linecap: butt; stroke-linejoin: miter; stroke-miterlimit: 10; fill: #418ce8; fill-rule: nonzero; opacity: 1;" transform=" matrix(1 0 0 1 0 0) " stroke-linecap="round" />
  <path d="M 256 358.42 c -66.048 0 -127.67 -18.883 -179.807 -51.52 C 98.36 385.357 170.44 442.88 256 442.88 c 85.558 0 157.64 -57.523 179.802 -135.98 C 383.67 339.538 322.048 358.42 256 358.42 z" style="stroke: none; stroke-width: 1; stroke-dasharray: none; stroke-linecap: butt; stroke-linejoin: miter; stroke-miterlimit: 10; fill: #418ce8; fill-rule: nonzero; opacity: 1;" transform=" matrix(1 0 0 1 0 0) " stroke-linecap="round" />
  <path d="M 43.758 158.282 l -16.97 -7.823 c 2.749 -5.962 5.78 -11.904 9.009 -17.664 l 16.3 9.134 C 49.106 147.259 46.303 152.765 43.758 158.282 z M 61.699 126.28 l -15.532 -10.394 c 3.661 -5.466 7.58 -10.862 11.666 -16.033 l 14.666 11.579 C 68.721 116.221 65.085 121.219 61.699 126.28 z M 84.424 97.472 l -13.716 -12.69 c 4.47 -4.836 9.183 -9.554 14.011 -14.021 l 12.692 13.724 C 92.936 88.62 88.571 92.995 84.424 97.472 z M 111.368 72.55 L 99.784 57.884 c 5.171 -4.081 10.565 -8.008 16.031 -11.666 l 10.399 15.526 C 121.144 65.139 116.15 68.774 111.368 72.55 z M 141.85 52.145 l -9.142 -16.294 c 5.747 -3.223 11.681 -6.254 17.651 -9.016 l 7.841 16.965 C 152.666 46.351 147.167 49.165 141.85 52.145 z M 175.14 36.772 l -6.469 -17.528 c 6.18 -2.278 12.521 -4.339 18.854 -6.121 l 5.059 17.989 C 186.724 32.76 180.856 34.665 175.14 36.772 z M 210.427 26.844 L 206.81 8.509 c 6.451 -1.277 13.046 -2.314 19.584 -3.077 l 2.166 18.56 C 222.513 24.704 216.41 25.661 210.427 26.844 z" style="stroke: none; stroke-width: 1; stroke-dasharray: none; stroke-linecap: butt; stroke-linejoin: miter; stroke-miterlimit: 10; fill: #677da3; fill-rule: nonzero; opacity: 1;" transform=" matrix(1 0 0 1 0 0) " stroke-linecap="round" />
  <rect x="246.66" y="3.71" rx="0" ry="0" width="18.68" height="18.69" style="stroke: none; stroke-width: 1; stroke-dasharray: none; stroke-linecap: butt; stroke-linejoin: miter; stroke-miterlimit: 10; fill: #677da3; fill-rule: nonzero; opacity: 1;" transform=" matrix(1 0 0 1 0 0) "/>
  <path d="M 285.612 506.573 l -2.179 -18.56 c 6.057 -0.714 12.155 -1.672 18.132 -2.847 l 3.622 18.327 C 298.737 504.768 292.147 505.8 285.612 506.573 z M 324.472 498.883 l -5.059 -17.989 c 5.855 -1.646 11.725 -3.551 17.439 -5.658 l 6.474 17.528 C 337.149 495.048 330.808 497.103 324.472 498.883 z M 361.643 485.166 l -7.834 -16.957 c 5.514 -2.552 11.018 -5.363 16.346 -8.346 l 9.137 16.294 C 373.542 479.383 367.608 482.411 361.643 485.166 z M 396.183 465.789 l -10.394 -15.529 c 5.069 -3.4 10.063 -7.027 14.838 -10.806 l 11.584 14.666 C 407.055 458.191 401.659 462.124 396.183 465.789 z M 427.277 441.234 l -12.693 -13.716 c 4.483 -4.147 8.847 -8.512 12.982 -12.977 l 13.722 12.685 C 436.833 432.043 432.113 436.759 427.277 441.234 z M 454.172 412.147 l -14.674 -11.571 c 3.789 -4.8 7.419 -9.795 10.801 -14.851 l 15.534 10.394 C 462.185 401.569 458.26 406.968 454.172 412.147 z M 476.206 379.213 l -16.305 -9.132 c 2.98 -5.315 5.786 -10.813 8.346 -16.363 l 16.968 7.834 C 482.45 367.534 479.419 373.489 476.206 379.213 z" style="stroke: none; stroke-width: 1; stroke-dasharray: none; stroke-linecap: butt; stroke-linejoin: miter; stroke-miterlimit: 10; fill: #677da3; fill-rule: nonzero; opacity: 1;" transform=" matrix(1 0 0 1 0 0) " stroke-linecap="round" />
  <rect x="246.66" y="489.6" rx="0" ry="0" width="18.68" height="18.69" style="stroke: none; stroke-width: 1; stroke-dasharray: none; stroke-linecap: butt; stroke-linejoin: miter; stroke-miterlimit: 10; fill: #677da3; fill-rule: nonzero; opacity: 1;" transform=" matrix(1 0 0 1 0 0) "/>
  <path d="M 264.323 314.716 c -0.046 0 -0.087 0 -0.138 0 h -16.42 c -0.033 0 -0.067 0 -0.097 0 c -8.986 0 -17.495 -3.517 -23.944 -9.907 c -6.459 -6.513 -9.981 -15.06 -9.981 -24.118 h 18.688 c 0 4.099 1.603 7.967 4.508 10.906 c 2.867 2.836 6.705 4.431 10.755 4.431 c 0.013 0 0.028 0 0.046 0 h 16.484 c 0.023 0 0.044 0 0.061 0 c 4.104 0 7.949 -1.595 10.88 -4.5 c 2.793 -2.862 4.39 -6.751 4.378 -10.813 c 0.054 -4.063 -1.577 -7.992 -4.46 -10.913 c -2.867 -2.862 -6.733 -4.467 -10.852 -4.467 h -0.013 l -16.448 0.01 c -9.103 -0.018 -17.651 -3.561 -24.077 -10.002 c -6.41 -6.39 -9.948 -14.943 -9.948 -24.056 c 0 -9.055 3.523 -17.6 9.923 -24.054 c 6.564 -6.459 15.086 -9.974 24.087 -9.974 h 0.013 h 16.458 c 0.008 0 0.013 0 0.023 0 c 9.019 0 17.556 3.515 24.044 9.894 c 6.451 6.612 9.94 15.132 9.961 24.113 l -18.688 0.046 c -0.013 -4.101 -1.613 -8 -4.521 -10.977 c -2.829 -2.783 -6.715 -4.39 -10.806 -4.39 h -0.008 h -16.463 h -0.01 c -4.068 0 -7.933 1.603 -10.895 4.526 c -2.826 2.849 -4.429 6.72 -4.429 10.816 c 0 4.114 1.587 7.962 4.47 10.842 c 2.913 2.913 6.771 4.516 10.877 4.521 l 16.433 -0.003 c 0.008 0 0.018 0 0.018 0 c 9.114 0 17.674 3.548 24.115 9.989 c 6.4 6.484 9.992 15.281 9.892 24.164 c 0.021 8.847 -3.464 17.377 -9.8 23.89 C 281.861 311.199 273.344 314.716 264.323 314.716 z" style="stroke: none; stroke-width: 1; stroke-dasharray: none; stroke-linecap: butt; stroke-linejoin: miter; stroke-miterlimit: 10; fill: #677da3; fill-rule: nonzero; opacity: 1;" transform=" matrix(1 0 0 1 0 0) " stroke-linecap="round" />
  <rect x="246.66" y="186.86" rx="0" ry="0" width="18.69" height="19.73" style="stroke: none; stroke-width: 1; stroke-dasharray: none; stroke-linecap: butt; stroke-linejoin: miter; stroke-miterlimit: 10; fill: #677da3; fill-rule: nonzero; opacity: 1;" transform=" matrix(1 0 0 1 0 0) "/>
  <rect x="246.66" y="305.41" rx="0" ry="0" width="18.69" height="19.75" style="stroke: none; stroke-width: 1; stroke-dasharray: none; stroke-linecap: butt; stroke-linejoin: miter; stroke-miterlimit: 10; fill: #677da3; fill-rule: nonzero; opacity: 1;" transform=" matrix(1 0 0 1 0 0) "/>
  <path d="M 256 367.762 c -94.764 0 -183.416 -37.376 -249.628 -105.229 L 0 256.003 l 6.372 -6.528 C 72.584 181.619 161.236 144.246 256 144.246 s 183.414 37.373 249.628 105.229 l 6.372 6.528 l -6.372 6.531 C 439.414 330.388 350.764 367.762 256 367.762 z M 26.289 256.003 C 88.195 316.093 169.405 349.074 256 349.074 s 167.808 -32.983 229.709 -93.071 C 423.808 195.914 342.595 162.931 256 162.931 S 88.195 195.914 26.289 256.003 z" style="stroke: none; stroke-width: 1; stroke-dasharray: none; stroke-linecap: butt; stroke-linejoin: miter; stroke-miterlimit: 10; fill: #677da3; fill-rule: nonzero; opacity: 1;" transform=" matrix(1 0 0 1 0 0) " stroke-linecap="round" />
</g>
  <g transform="translate(232.04 69.68)">
   <text font-family="Choda Chado Chado" font-size="40" font-weight="normal" style="stroke: none; stroke-width: 1; stroke-dasharray: none; stroke-linecap: butt; stroke-linejoin: miter; stroke-miterlimit: 10; fill: #383300; fill-rule: nonzero; opacity: 1;" ><tspan x="-103.54" y="8.98" style="stroke: none; stroke-width: 0; stroke-dasharray: none; stroke-linecap: butt; stroke-linejoin: miter; stroke-miterlimit: 4; fill: #383300; fill-rule: ; opacity: 1;">C</tspan><tspan x="-82.9" y="8.98" style="stroke: none; stroke-width: 0; stroke-dasharray: none; stroke-linecap: butt; stroke-linejoin: miter; stroke-miterlimit: 4; fill: #383300; fill-rule: ; opacity: 1;">r</tspan><tspan x="-66.86" y="8.98" style="stroke: none; stroke-width: 0; stroke-dasharray: none; stroke-linecap: butt; stroke-linejoin: miter; stroke-miterlimit: 4; fill: #383300; fill-rule: ; opacity: 1;">y</tspan><tspan x="-42.7" y="8.98" style="stroke: none; stroke-width: 0; stroke-dasharray: none; stroke-linecap: butt; stroke-linejoin: miter; stroke-miterlimit: 4; fill: #383300; fill-rule: ; opacity: 1;">p</tspan><tspan x="-18.66" y="8.98" style="stroke: none; stroke-width: 0; stroke-dasharray: none; stroke-linecap: butt; stroke-linejoin: miter; stroke-miterlimit: 4; fill: #383300; fill-rule: ; opacity: 1;">t</tspan><tspan x="-1.74" y="8.98" style="stroke: none; stroke-width: 0; stroke-dasharray: none; stroke-linecap: butt; stroke-linejoin: miter; stroke-miterlimit: 4; fill: #383300; fill-rule: ; opacity: 1;">W</tspan><tspan x="35.86" y="8.98" style="stroke: none; stroke-width: 0; stroke-dasharray: none; stroke-linecap: butt; stroke-linejoin: miter; stroke-miterlimit: 4; fill: #383300; fill-rule: ; opacity: 1;">a</tspan><tspan x="59.54" y="8.98" style="stroke: none; stroke-width: 0; stroke-dasharray: none; stroke-linecap: butt; stroke-linejoin: miter; stroke-miterlimit: 4; fill: #383300; fill-rule: ; opacity: 1;">v</tspan><tspan x="82.94" y="8.98" style="stroke: none; stroke-width: 0; stroke-dasharray: none; stroke-linecap: butt; stroke-linejoin: miter; stroke-miterlimit: 4; fill: #383300; fill-rule: ; opacity: 1;">e</tspan></text>
 </g>
  <g transform="translate(167.05 113.33) scale(0.6 0.6)">
   <text font-family="Choda" font-size="40" font-style="italic" font-weight="bold" style="stroke: none; stroke-width: 1; stroke-dasharray: none; stroke-linecap: butt; stroke-linejoin: miter; stroke-miterlimit: 10; fill: #00000f; fill-rule: nonzero; opacity: 1;" ><tspan x="-39.98" y="8.98" style="stroke: none; stroke-width: 0; stroke-dasharray: none; stroke-linecap: butt; stroke-linejoin: miter; stroke-miterlimit: 4; fill: #00000f; fill-rule: ; opacity: 1;">S</tspan><tspan x="-14.9" y="8.98" style="stroke: none; stroke-width: 0; stroke-dasharray: none; stroke-linecap: butt; stroke-linejoin: miter; stroke-miterlimit: 4; fill: #00000f; fill-rule: ; opacity: 1;"> </tspan><tspan x="-4.9" y="8.98" style="stroke: none; stroke-width: 0; stroke-dasharray: none; stroke-linecap: butt; stroke-linejoin: miter; stroke-miterlimit: 4; fill: #00000f; fill-rule: ; opacity: 1;">I</tspan><tspan x="5.82" y="8.98" style="stroke: none; stroke-width: 0; stroke-dasharray: none; stroke-linecap: butt; stroke-linejoin: miter; stroke-miterlimit: 4; fill: #00000f; fill-rule: ; opacity: 1;"> </tspan><tspan x="15.82" y="8.98" style="stroke: none; stroke-width: 0; stroke-dasharray: none; stroke-linecap: butt; stroke-linejoin: miter; stroke-miterlimit: 4; fill: #00000f; fill-rule: ; opacity: 1;">A</tspan></text>
 </g>
</svg>